<svg width="78" height="72" viewBox="0 0 78 72" fill="#81B3D2" xmlns="http://www.w3.org/2000/svg">
  <path d="M30.88 64.94h16.5V41.17h-16.5v23.77Zm13.5-2.89h-10.5v-18h10.41v18h.1Z"/>
  <path d="m75.32 39.18 2.17-2.09-10.21-9.84V.4H53.05v13.12L38.92 0 .46 37.2l2.16 2.08 8.05-7.76v37.6H6.65V72h65.89v-2.88h-5.26v-37.7l8.04 7.76ZM56.04 3.38h8.14v20.98l-8.14-7.85V3.38Zm8.25 65.64H13.76V28.54L38.92 4.18l25.26 24.36v40.48h.1Z"/>
  <path d="M31.19 27.05c0 4.28 3.6 7.76 7.94 7.76 4.43 0 8.04-3.48 8.04-7.76 0-4.28-3.6-7.66-8.04-7.66-4.44 0-7.94 3.38-7.94 7.66Zm7.94-4.97a5.08 5.08 0 0 1 5.15 4.97 5.08 5.08 0 0 1-5.15 4.97 5.08 5.08 0 0 1-5.16-4.97 5.15 5.15 0 0 1 5.16-4.97ZM20.98 41.17h-3.1v3.88h3.1v-3.88Zm6.08 0h-3.09v3.88h3.1v-3.88Zm-6.08 5.97h-3.1v3.88h3.1v-3.88Zm6.08 0h-3.09v3.88h3.1v-3.88Zm26.81-5.97h-3.09v3.88h3.1v-3.88Zm6.19 0h-3.1v3.88h3.1v-3.88Zm-6.19 5.97h-3.09v3.88h3.1v-3.88Zm6.19 0h-3.1v3.88h3.1v-3.88Z"/>
</svg>
