<svg width="67" height="75" viewBox="0 0 67 75" fill="none" xmlns="http://www.w3.org/2000/svg">
  <path d="M64.02 22.12H38.26c14.36-6.8 15.52-11.1 14.99-13.5-1.16-3.9-5.91-6.9-10.35-5.3-5.8 2.1-7.39 10.3-8.97 16.2-2-6-3.9-13.6-8.45-17.5a7.94 7.94 0 0 0-6.01-2c-4.22.4-10.24 5.3-7.7 10.8 2.31 5.3 10.02 8.7 15.2 11.4H3.41a2.87 2.87 0 0 0-2.95 2.8v11.2c0 1.6 1.37 2.8 2.95 2.8h.32V75H63.9V39.01h.1c1.7 0 2.96-1.3 2.96-2.8v-11.2c0-1.6-1.37-2.9-2.95-2.9ZM44.59 5.82c2.22-.3 5.17 1.3 5.5 3.2.41 2.7-3.5 5.2-5.29 6.3-2.64 1.7-5.17 2.6-7.6 4 .85-3.7 2.64-12.9 7.4-13.5Zm-23.86 9.8c-2.32-1.5-6.75-4.4-6.65-7.7.11-3.6 6.02-6.5 9.19-3.8 4.01 3.3 5.91 11 7.39 16.4-3.38-1.6-6.55-2.8-9.93-4.9ZM26.96 72H6.8V39.01h20.16v33Zm0-35.99H3.63v-10.9h23.33v10.9Zm10.56 36h-7.5V25.1h7.5V72Zm23.22 0H40.7V39h20.16v33h-.1Zm3.06-36H40.7v-10.9h23.1v10.9Z" fill="#81B3D2"/>
</svg>
