<svg width="82" height="68" viewBox="0 0 82 68" fill="none" xmlns="http://www.w3.org/2000/svg">
  <path d="M76.53 45.33H5.36c-2.53 0-4.53 1.97-4.53 4.24v3.45c0 2.27 2 4.14 4.53 4.14h1.05v.98c0 5.42 4.74 9.76 10.43 9.76h48.21c5.8 0 10.43-4.43 10.43-9.76v-.98h1.05c2.42 0 4.53-1.87 4.53-4.24v-3.45c0-2.17-2-4.14-4.53-4.14Zm-4.1 12.81c0 3.75-3.27 6.8-7.27 6.8H16.73c-4 0-7.26-3.05-7.26-6.8v-.98h62.95v.98Zm5.47-5.22c0 .7-.63 1.28-1.37 1.28H5.36c-.74 0-1.37-.59-1.37-1.28v-3.45c0-.59.63-1.18 1.37-1.18h71.27c.74 0 1.37.59 1.37 1.28v3.35h-.1ZM17.89 37.35l5.68 3.94 5.8-3.94 5.78 3.94 5.8-3.94 5.68 3.94 5.79-3.94 5.79 3.94 5.8-3.94 5.78 3.94 6.63-4.63-1.79-2.37-4.84 3.26L64 33.6l-5.79 3.95-5.79-3.95-5.8 3.95-5.68-3.95-5.79 3.95-5.79-3.95-5.79 3.95-5.68-3.95-5.8 3.95-4.83-3.26-1.9 2.37 6.74 4.63 5.79-3.94Zm57.59-6.7c0-.6.1-2.56 0-2.96C74.74 12.32 59.58 0 40.94 0 22.31 0 7.04 12.32 6.31 27.7v2.95h69.17ZM40.94 2.95C57.8 2.96 71.7 14 72.32 27.7H9.47C10.2 14 24.1 2.96 40.94 2.96Z" fill="#81B3D2"/>
  <path d="M40.94 16.75c1.17 0 2.11-.88 2.11-1.97 0-1.09-.94-1.97-2.1-1.97-1.17 0-2.11.88-2.11 1.97 0 1.1.94 1.97 2.1 1.97Zm-8.42-4.83c1.16 0 2.1-.88 2.1-1.97 0-1.09-.93-1.97-2.1-1.97-1.16 0-2.1.88-2.1 1.97 0 1.1.94 1.97 2.1 1.97Zm16.85 0c1.16 0 2.1-.88 2.1-1.97 0-1.09-.94-1.97-2.1-1.97-1.17 0-2.1.88-2.1 1.97 0 1.1.93 1.97 2.1 1.97Z" fill="#81B3D2"/>
</svg>
